/* XPM */
static char *XPM_icon[] = {
"20 16 17 1 10 8",
"  c None",
"s c #282a2e",
"S c #373b41",
"r c #a54242",
"R c #cc6666",
"g c #8c9440",
"G c #b5bd68",
"y c #de935f",
"Y c #f0c674",
"b c #5f819d",
"B c #81a2be",
"m c #85678f",
"M c #b294bb",
"c c #5e8d87",
"C c #8abeb7",
"w c #707880",
"W c #c5c8c6",
"                    ",
"                    ",
"WWWWWWWWWWWWWWWWWWWW",
" W    W  WW  WW  WW ",
" WW  WW  WW  WW  WW ",
" WW  WW  WW  WW  WW ",
" WW  WW  WW  WW  WW ",
" WW  WW  WW  WW  WW ",
"  W  W   WW  WW  WW ",
"  WWWW   WW  WW  WW ",
"  WWWW   WW  WW  WW ",
"   WW    WW  WW  WW ",
"   WW    WW  WW  WW ",
"WWWWWWWWWWWWWWWWWWWW",
"                    ",
"                    ",
};
