/* XPM */
static char * borderR_xpm[] = {
"22 22 28 1",
" 	c #282A2E",
".	c #C4C7C5",
"+	c #C0C3C1",
"@	c #B8BBB9",
"#	c #ABAEAC",
"$	c #979998",
"%	c #777979",
"&	c #383A3D",
"*	c #C5C8C6",
"=	c #A6A9A7",
"-	c #B3B6B4",
";	c #7D7F7F",
">	c #A9ACAA",
",	c #595B5B",
"'	c #C2C5C3",
")	c #7F8181",
"!	c #8F9291",
"~	c #929493",
"{	c #888A8A",
"]	c #6C6E6E",
"^	c #B4B7B5",
"/	c #909392",
"(	c #C1C4C2",
"_	c #404143",
":	c #8F9190",
"<	c #B6B9B7",
"[	c #646667",
"}	c #8E908F",
"                      ",
"                      ",
"..+@#$%&              ",
"*******.=%            ",
"**********-;          ",
"************>,        ",
"*************')       ",
"***************!      ",
"****************~     ",
"*****************{    ",
"******************]   ",
"******************^   ",
"*******************/  ",
"*******************(_ ",
"********************: ",
"********************< ",
"*********************[",
"*********************}",
"*********************=",
"*********************<",
"*********************+",
"*********************."};
