/* XPM */
static char * borderL_xpm[] = {
"22 22 28 1",
" 	c #282A2E",
".	c #383A3D",
"+	c #777979",
"@	c #979998",
"#	c #ABAEAC",
"$	c #B8BBB9",
"%	c #C0C3C1",
"&	c #C4C7C5",
"*	c #A6A9A7",
"=	c #C5C8C6",
"-	c #7D7F7F",
";	c #B3B6B4",
">	c #595B5B",
",	c #A9ACAA",
"'	c #7F8181",
")	c #C2C5C3",
"!	c #8F9291",
"~	c #929493",
"{	c #888A8A",
"]	c #6C6E6E",
"^	c #B4B7B5",
"/	c #909392",
"(	c #404143",
"_	c #C1C4C2",
":	c #8F9190",
"<	c #B6B9B7",
"[	c #646667",
"}	c #8E908F",
"                      ",
"                      ",
"              .+@#$%&&",
"            +*&=======",
"          -;==========",
"        >,============",
"       ')=============",
"      !===============",
"     ~================",
"    {=================",
"   ]==================",
"   ^==================",
"  /===================",
" (_===================",
" :====================",
" <====================",
"[=====================",
"}=====================",
"*=====================",
"<=====================",
"%=====================",
"&====================="};
